<svg xmlns="http://www.w3.org/2000/svg" fill="none" aria-label="Referral Program icon – Right Business Mentors" viewBox="0 0 24 24"><path fill="#fff5d1" d="m12 7-1.2 1.2L12 9.4l1.2-1.2Z"/><path stroke="#10222e" stroke-width="1.75" d="M12 9.4v5.4"/><path fill="#fff5d1" d="m7 9-1 1 1 1 1-1Z"/><path stroke="#10222e" stroke-width="1.75" d="M7 11v3"/><path fill="#fff5d1" d="m17 9-1 1 1 1 1-1Z"/><path stroke="#10222e" stroke-width="1.75" d="M17 11v3"/><path stroke="#10222e" stroke-width="1.75" d="m8 12.5 3-.5M13 12l3 .5" opacity=".7"/><path stroke="#10222e" stroke-width="1.75" d="M12 15.5V20M13.8 16.5h-2.6c-.5 0-.9.4-.9.9s.4.9.9.9h1.6c.5 0 .9.4.9.9s-.4.9-.9.9h-2.6"/></svg>